<svg xmlns="http://www.w3.org/2000/svg" width="490" height="573" fill="none"><path fill="gray" fill-rule="evenodd" d="M157 0a15 15 0 1 0 12 23h3v36l17-16V6h-20a15 15 0 0 0-12-6zm176 0a15 15 0 0 0-12 6h-20v45h17V23h3a15 15 0 1 0 12-23zM41 192h9l14-14v-16c-8 9-16 19-23 30zm93-32l-5 4v-25l60-60V50l-5 5-11 11v27c-17 5-33 12-48 21l-22 21v43L4 285c-3 14-4 28-4 42v7l46-46-2 8-44 44a245 245 0 0 0 115 195l22-22v-12l5 3v11l-23 23 19 10 11-10v-3a6 6 0 1 1 4 6l-10 10c15 6 30 11 46 15v-43l5 1v43l12 2v-43l4 1v43a245 245 0 0 0 265-160l-24 25h-38l2-5h34l30-30c7-24 11-48 11-73v-4l-56 56 2-8 54-54c-1-19-4-37-9-55l-30 31v29a7 7 0 0 1 4 7 7 7 0 1 1-14 0 7 7 0 0 1 5-7v-31l34-34-11-28-73 73v13h-5v-15l76-76-10-20-92 92v19h-5v-21l94-94-11-17-3-4c-13-17-28-32-45-45l-16 15a7 7 0 1 1-3-3l15-15a827 827 0 0 0-43-26l-23 24a7 7 0 1 1-4-4l22-22-25-10V56h-17v80a242 242 0 0 0-112 1v-5l-7 7-9 3v-1l16-16V86l-55 55v19zm266 49c-22-23-45-40-67-50-28-11-58-17-88-17A185 185 0 0 0 54 328a192 192 0 0 0 94 165c31 17 65 25 99 25 32 0 63-7 91-22 26-16 48-38 63-65 16-27 24-57 24-89v-15H245v64h104c-9 19-22 36-39 47-19 10-39 15-60 15a125 125 0 0 1-119-76c-6-15-9-32-9-48a115 115 0 0 1 36-85 121 121 0 0 1 88-35c41 0 76 16 106 48l48-48zm-92 194h-6l-37 37 8-1 35-36zm-75-45v-5h-90l-5 5 1 6 6-6h88zm58 168l-8 1-5 5a8 8 0 1 0 4 5v-1l-1-1 10-9zm-117-8l-5-2v8l-1 1a6 6 0 1 0 7 0l-1-1v-6zm-48-24l-5-4v9a6 6 0 0 0-3 6 6 6 0 0 0 6 6 6 6 0 0 0 2-12v-5zm-40-38l-3-4-5 3h-1a7 7 0 1 0 5 5l-1-1 4-3h1zM43 350l-1-6-9 9h-1a7 7 0 1 0 5 5v-1l6-7zm200-129h-8l-48 48h-35l-3 5h40l54-53zm-60 200l5 3 2-2a6 6 0 1 0-4-3l-3 2zm16 9l4 2 14-14a6 6 0 1 0-3-3l-15 15zm23 8l5 1 20-20a6 6 0 1 0-4-6l1 3-23 22h1zm-42-33a4 4 0 1 0 0 7 4 4 0 0 0 0-7zm12 7a4 4 0 1 0 0 8 4 4 0 0 0 0-8zm181-263a4 4 0 1 0 0 7 4 4 0 0 0 0-7zm-99 386a4 4 0 1 0 0 8 4 4 0 0 0 0-8zm44-407a4 4 0 1 0 0 7 4 4 0 0 0 0-7zm130 197a4 4 0 1 0 0 7 4 4 0 0 0 0-7zM171 526a4 4 0 1 0 0 7 4 4 0 0 0 0-7zm-16 6a4 4 0 1 0 0 7 4 4 0 0 0 0-7zm-32-31a4 4 0 1 0 0 7 4 4 0 0 0 0-7zm-48-43a4 4 0 1 0 0 8 4 4 0 0 0 0-8zm174-48a4 4 0 1 0 0 7 4 4 0 0 0 0-7zm-30-1a4 4 0 1 0 0 7 4 4 0 0 0 0-7zM30 356a4 4 0 1 0 0 8 4 4 0 0 0 0-8zm142 57l4 3 1-2a6 6 0 1 0-3-3l-2 2zM5 277l93-100v-44h1l10-10c-15 10-28 21-40 34v23l-17 16H38c-16 25-27 52-33 81z" clip-rule="evenodd"/></svg>
