<svg xmlns="http://www.w3.org/2000/svg" viewBox="0 0 364.86 87.25"><defs><style>.cls-1{fill-rule:evenodd;}</style></defs><title>Gideon Logo</title><g id="Layer_2" data-name="Layer 2"><g id="Layer_1-2" data-name="Layer 1"><path class="cls-1" d="M311.33,24.84h15.09V31a35.78,35.78,0,0,1,9.35-6,22.47,22.47,0,0,1,8.56-1.7,20.76,20.76,0,0,1,15.26,6.29c3.52,3.54,5.26,8.79,5.26,15.75V85.21h-15V58.76q0-10.82-1-14.37A9.88,9.88,0,0,0,345.52,39a9.48,9.48,0,0,0-5.95-1.86,11.13,11.13,0,0,0-7.91,3.09,16.43,16.43,0,0,0-4.58,8.5q-.65,2.84-.66,12.27V85.21H311.33V24.84ZM79,16.93,68.07,27.74q-10.4-11-24.2-11a27.57,27.57,0,0,0-20.17,8,26.2,26.2,0,0,0-8.12,19.41,27,27,0,0,0,8.43,20,28.66,28.66,0,0,0,20.81,8.2A25.49,25.49,0,0,0,58.38,69c3.69-2.27,6.65-5.79,8.92-10.6H43.66V43.82h41l.11,3.45a39.81,39.81,0,0,1-5.55,20.3A38.83,38.83,0,0,1,64.91,82.22q-8.83,5.06-20.7,5a46.06,46.06,0,0,1-22.67-5.51A40.21,40.21,0,0,1,5.79,66,43.85,43.85,0,0,1,0,44,40.92,40.92,0,0,1,10.7,15.81Q23.42,1.55,43.76,1.55A50.27,50.27,0,0,1,63.68,5.49Q71.52,8.81,79,16.93Zm10,7.91h15.2V85.21H89V24.84ZM155.74,1.55h15.09V85.21H155.74V78.83a29.73,29.73,0,0,1-8.9,6.08,25.18,25.18,0,0,1-9.69,1.86q-11.7,0-20.24-9.07t-8.54-22.55q0-14,8.26-22.91a26.4,26.4,0,0,1,20.09-8.94,25.66,25.66,0,0,1,10.21,2.06,28,28,0,0,1,8.82,6.15v-30ZM139.81,37.28a15.35,15.35,0,0,0-11.7,5A17.87,17.87,0,0,0,123.45,55a18,18,0,0,0,4.73,12.88,15.4,15.4,0,0,0,11.68,5.06,15.68,15.68,0,0,0,11.87-5q4.71-4.94,4.71-13c0-5.25-1.57-9.51-4.71-12.74a15.88,15.88,0,0,0-11.93-4.89Zm100,22.14H191.19a16.22,16.22,0,0,0,5.64,10.22,17.61,17.61,0,0,0,11.66,3.81,20.22,20.22,0,0,0,14.6-5.95l12.76,6a30.24,30.24,0,0,1-11.44,10,35.75,35.75,0,0,1-15.81,3.24q-14.2,0-23.12-9t-8.94-22.44c0-9.22,3-16.85,8.9-22.95s13.39-9.13,22.32-9.13q14.26,0,23.2,9.13t8.94,24.1l-.06,2.9ZM224.65,47.49a15.29,15.29,0,0,0-5.91-8.22,17.17,17.17,0,0,0-10.24-3.16,18.12,18.12,0,0,0-11.1,3.56q-3,2.21-5.55,7.82Zm49-24.2a32.14,32.14,0,0,1,16.08,4.28A31.35,31.35,0,0,1,305.71,55a31.8,31.8,0,0,1-4.24,16A30.72,30.72,0,0,1,289.9,82.58a32,32,0,0,1-16.15,4.18,30.1,30.1,0,0,1-22.15-9.24,30.65,30.65,0,0,1-9.18-22.44,30.55,30.55,0,0,1,10.38-23.57,30.29,30.29,0,0,1,20.9-8.22Zm.23,14.26a15.57,15.57,0,0,0-11.74,4.92A17.44,17.44,0,0,0,257.51,55c0,5.26,1.53,9.51,4.64,12.76a15.45,15.45,0,0,0,11.72,4.89,15.65,15.65,0,0,0,11.82-4.94A17.63,17.63,0,0,0,290.4,55q0-7.75-4.62-12.61A15.7,15.7,0,0,0,273.92,37.55Z"/><path class="cls-1" d="M96.59,0a9.37,9.37,0,0,1,6.85,2.88,9.62,9.62,0,0,1,2.84,7,9.4,9.4,0,0,1-2.82,6.91,9.18,9.18,0,0,1-6.76,2.86,9.27,9.27,0,0,1-6.91-2.92,9.67,9.67,0,0,1-2.86-7.06,9.36,9.36,0,0,1,2.82-6.83A9.36,9.36,0,0,1,96.59,0Z"/><path class="cls-1" d="M185.17,13.64h-3.59l-.52,1.6h-1.67l2.77-8.33h2.37l2.81,8.33H185.7l-.53-1.6Zm-.36-1.17-1.44-4.34L182,12.48Zm17.32-5.56v8.33h-2.68l-2.38-4.57c-.12-.23-.3-.63-.55-1.2l-.27-.6-.26-.6h-.06l0,.55,0,.54v5.87H194.4V6.91h2.68l2.16,4.22q.29.56.67,1.36l.32.68.32.68h.05l0-.54,0-.54V6.91ZM215,13.64h-3.59l-.52,1.6h-1.67L212,6.91h2.37l2.81,8.33H215.5l-.53-1.6Zm-.36-1.17-1.44-4.34-1.41,4.34Zm11.18-5.56v6.91h3.9v1.42H224.2V6.91Zm17.94,0-3.09,5.15v3.18h-1.58V12.06l-3-5.15h1.83l1.26,2.19c.07.12.19.35.35.68l.18.34.17.33h0l.18-.33.18-.34c.15-.3.27-.53.36-.68l1.27-2.19Zm10.35,1.42v6.91h-1.58V8.33h-2.41V6.91h6.47V8.33Zm11.21-1.42v8.33H263.7V6.91Zm13,5.36h1.59v.29a2.88,2.88,0,0,1-.64,2.25,5,5,0,0,1-2.8.51q-2.46,0-3-.81t-.57-4.31a3.54,3.54,0,0,1,.77-2.71,5.38,5.38,0,0,1,3.22-.65,3.74,3.74,0,0,1,2.38.53,2.83,2.83,0,0,1,.6,2.12v.19h-1.59V9.47c0-.54-.1-.89-.31-1a2.73,2.73,0,0,0-1.41-.23c-1,0-1.57.12-1.77.36a4.35,4.35,0,0,0-.3,2.13,8.1,8.1,0,0,0,.26,2.83q.27.44,1.72.44a3.08,3.08,0,0,0,1.53-.24q.35-.24.35-1.07v-.37Zm14,1.37H288.6l-.52,1.6h-1.67l2.77-8.33h2.37l2.81,8.33h-1.64l-.53-1.6Zm-.36-1.17-1.44-4.34L289,12.48ZM303,6.91v6.91h3.9v1.42h-5.48V6.91Zm15.75,0v6.91h3.9v1.42h-5.48V6.91Zm16.08,6.73h-3.59l-.52,1.6H329l2.77-8.33h2.37L337,15.24h-1.64l-.53-1.6Zm-.36-1.17L333,8.14l-1.41,4.34Zm9.6,2.77V6.91h4.09a3.06,3.06,0,0,1,2,.46,2.27,2.27,0,0,1,.52,1.74q0,1.54-1.22,1.82v0q1.43.22,1.43,2a2.38,2.38,0,0,1-.55,1.79,2.8,2.8,0,0,1-1.91.51Zm1.58-4.83h1.93a2.18,2.18,0,0,0,1.2-.21c.17-.14.26-.46.26-1q0-1-1.13-1h-2.26v2.17Zm0,3.5h2.29a1.7,1.7,0,0,0,1.05-.22,1.3,1.3,0,0,0,.25-1c0-.5-.09-.82-.26-.95a2.66,2.66,0,0,0-1.31-.2h-2v2.33ZM364.5,9.34H363c0-.08,0-.13,0-.17,0-.47-.14-.76-.31-.88a2.53,2.53,0,0,0-1.21-.18,3.32,3.32,0,0,0-1.47.21.94.94,0,0,0-.34.87q0,.79.28.95a6.48,6.48,0,0,0,1.85.24,4.84,4.84,0,0,1,2.41.53,2.2,2.2,0,0,1,.55,1.77q0,1.66-.64,2.14a5.31,5.31,0,0,1-2.82.49,4.8,4.8,0,0,1-2.61-.48,2.29,2.29,0,0,1-.65-1.93v-.31h1.54v.18q0,.87.3,1.07a4,4,0,0,0,1.67.2,2.56,2.56,0,0,0,1.35-.23q.29-.23.29-1a1.08,1.08,0,0,0-.22-.8,1.71,1.71,0,0,0-1-.24l-.87-.06a5.19,5.19,0,0,1-2.53-.55A2.34,2.34,0,0,1,358,9.27a2.29,2.29,0,0,1,.66-1.94,7.43,7.43,0,0,1,5.18,0A2,2,0,0,1,364.5,9Z"/></g></g></svg>