<svg xmlns="http://www.w3.org/2000/svg" xmlns:xlink="http://www.w3.org/1999/xlink" viewBox="0 0 127.68 136.29"><defs><style>.cls-1{fill:url(#GradientFill_1);}.cls-2{fill:url(#GradientFill_1-2);}.cls-3{fill:gray;}.cls-3,.cls-4,.cls-6{fill-rule:evenodd;}.cls-5,.cls-6{fill:#fff;}</style><linearGradient id="GradientFill_1" x1="83.43" y1="2.31" x2="83.43" y2="4.09" gradientUnits="userSpaceOnUse"><stop offset="0" stop-color="#902529"/><stop offset="1" stop-color="#3e070d"/></linearGradient><linearGradient id="GradientFill_1-2" x1="44.9" y1="2.31" x2="44.9" y2="4.09" xlink:href="#GradientFill_1"/></defs><title>grey on black</title><g id="Layer_2" data-name="Layer 2"><g id="Layer_1-2" data-name="Layer 1"><circle class="cls-1" cx="83.43" cy="3.2" r="1.54"/><circle class="cls-2" cx="44.9" cy="3.2" r="1.54"/><path class="cls-3" d="M84.55,16.85a58.1,58.1,0,1,1-40.76,0V8.61h3V19a55.06,55.06,0,1,0,34.69,0V8.61h3v8.24ZM44.9,0a3.2,3.2,0,1,0,2.65,5h.79V8.61h0v4.27l0,0h0l3.57-3.57h0V1.4H47.55A3.2,3.2,0,0,0,44.9,0ZM83.43,0a3.2,3.2,0,0,0-2.65,1.4H76.39v9.74H80V5h.79a3.2,3.2,0,1,0,2.65-5ZM19.72,41.72h2l3-3V35.32a53.62,53.62,0,0,0-5,6.4ZM40,34.91,39,35.6V30.26l13-13V10.78L50.82,11.9l-2.44,2.44,0,0v5.91a53,53,0,0,0-10.41,4.5l-4.68,4.68v9.4L11.59,62.06a53.69,53.69,0,0,0-.8,9.21c0,.45,0,.89,0,1.34l9.92-9.92q-.18.9-.32,1.82l-9.55,9.55a53.35,53.35,0,0,0,25,42.49l4.87-4.87v-2.53l1,.6h0v2.36l-5,5q2.06,1.23,4.23,2.28l2.31-2.31a1.32,1.32,0,0,1-.1-.5,1.3,1.3,0,1,1,1.3,1.3,1.32,1.32,0,0,1-.42-.07l-2.07,2.07A53,53,0,0,0,52,123.25v-9.46L53,114v9.44q1.27.27,2.57.48v-9.39l1.06.17v9.38a53.42,53.42,0,0,0,57.72-34.75l-5.32,5.31h-8.33q.3-.53.58-1.06h7.31l6.52-6.51a53.35,53.35,0,0,0,2.39-15.83q0-.44,0-.89L105.36,82.56q.19-.91.33-1.83l11.8-11.8a53.29,53.29,0,0,0-1.84-11.79L109,63.76v6.29a1.5,1.5,0,0,1,1,1.49,1.58,1.58,0,0,1-3.17,0A1.5,1.5,0,0,1,108,70V63.32L115.31,56a52.79,52.79,0,0,0-2.25-6.13L97.11,65.78v2.89H96V65.34l16.55-16.53q-1-2.2-2.24-4.3l-20,20v4.13H89.27V64.1l20.52-20.53q-1.19-2-2.55-3.81l-.65-.86a53.7,53.7,0,0,0-9.72-9.8l-3.4,3.4a1.61,1.61,0,1,1-.75-.75l3.3-3.3q-1.41-1-2.88-2h0a53.25,53.25,0,0,0-6.49-3.59L81.51,28a1.53,1.53,0,1,1-.75-.75l4.85-4.85A52.94,52.94,0,0,0,80,20.28l0,0v-8h-3.6V29.7a52.73,52.73,0,0,0-12.12-1.38,49.74,49.74,0,0,0-12.34,1.48V28.69l-1.55,1.55q-1,.3-2,.65v-.13l3.57-3.57V18.79L40,30.7v4.21Zm57.88,10.7q-7.16-7.75-14.62-10.92a48,48,0,0,0-19-3.76q-19.41,0-31.56,13.61A39.06,39.06,0,0,0,22.51,71.44a41.86,41.86,0,0,0,5.53,21,38.38,38.38,0,0,0,15,15,44,44,0,0,0,21.64,5.26,39.06,39.06,0,0,0,19.76-4.81,37.07,37.07,0,0,0,13.7-14,38,38,0,0,0,5.3-19.38l-.11-3.29H64.19V85.21H86.74a22.88,22.88,0,0,1-8.51,10.12,24.33,24.33,0,0,1-12.94,3.22,27.36,27.36,0,0,1-19.86-7.83,25.74,25.74,0,0,1-8-19.12,25,25,0,0,1,7.75-18.53,26.31,26.31,0,0,1,19.25-7.63q13.2,0,23.1,10.48L97.91,45.61ZM78,87.81H76.49l-8,8q.88-.1,1.76-.25L78,87.81ZM61.58,77.87V76.8H41.94L40.77,78q.15.59.34,1.17l1.28-1.28Zm12.6,36.59q-.91.18-1.82.32l-1,1a1.72,1.72,0,1,0,.87,1.17.5.5,0,0,0-.07-.23l-.07-.16,2.07-2.08Zm-25.53-1.66-1.06-.38v1.73l-.17.11a1.33,1.33,0,1,0,1.41,0l-.17-.11v-1.35Zm-10.49-5.3-1-.74v1.92a1.2,1.2,0,0,0-.75,1.18,1.37,1.37,0,0,0,1.3,1.3,1.3,1.3,0,0,0,.47-2.51v-1.15Zm-8.74-8.28-.64-.84-1,.75-.21-.07a1.59,1.59,0,1,0,1,1l-.07-.21.87-.66ZM20.15,76.3q-.07-.69-.12-1.38l-2,2-.21-.07a1.56,1.56,0,1,0,1.1,1.49,1.55,1.55,0,0,0-.07-.46l-.07-.21,1.39-1.39Zm43.5-28.25q-.8,0-1.59.08L51.55,58.54H43.91q-.36.53-.69,1.06H52L63.65,48.06ZM50.74,91.72l.91.59.45-.45a1.41,1.41,0,1,0-.76-.74l-.6.6Zm3.34,1.9q.52.24,1,.46l3-3a1.31,1.31,0,1,0-.84-1.22,1.32,1.32,0,0,0,.09.47l-3.29,3.29Zm5,1.67q.62.14,1.26.25l4.33-4.33A1.31,1.31,0,1,0,63.79,90a1.3,1.3,0,0,0,.09.47L59,95.29Zm-9.11-7.15a.79.79,0,1,0,.79.79.79.79,0,0,0-.79-.79Zm2.71,1.63a.79.79,0,1,0,.79.79.79.79,0,0,0-.79-.79ZM92,32.42a.78.78,0,1,0,.78.78.78.78,0,0,0-.78-.78Zm-21.46,84a.86.86,0,1,0,.86.86.86.86,0,0,0-.86-.86Zm9.57-88.56a.79.79,0,1,0,.79.79.79.79,0,0,0-.79-.79Zm28.33,42.89a.79.79,0,1,0,.79.79.79.79,0,0,0-.79-.79ZM48.12,114.56a.79.79,0,1,0,.79.79.79.79,0,0,0-.79-.79Zm-3.54,1.24a.79.79,0,1,0,.79.79.79.79,0,0,0-.79-.79Zm-6.9-6.75a.79.79,0,1,0,.79.79.79.79,0,0,0-.79-.79Zm-10.6-9.27a.79.79,0,1,0,.79.79.79.79,0,0,0-.79-.79Zm38-10.6a.79.79,0,1,0,.79.79.79.79,0,0,0-.79-.79Zm-6.52-.13a.79.79,0,1,0,.79.79.79.79,0,0,0-.79-.79ZM17.31,77.58a.79.79,0,1,0,.79.79.79.79,0,0,0-.79-.79Zm31,12.24.82.69.32-.32a1.36,1.36,0,1,0-.75-.75l-.38.38ZM11.94,60.2,32.19,38.43V29l.12-.12c.42-.42,1.22-1.16,2.18-2a53.68,53.68,0,0,0-8.7,7.28v5l-3.58,3.58H19A53,53,0,0,0,11.94,60.2Z"/><path class="cls-4" d="M63.84,136a2.18,2.18,0,0,0,.74-4.24v-1a60.05,60.05,0,0,0,6.74-.42,2.18,2.18,0,0,0,.36,3.49v2.42H56v-2.42a2.18,2.18,0,0,0,.36-3.49,60.05,60.05,0,0,0,6.74.42v1a2.18,2.18,0,0,0,.74,4.24ZM7.7,50.59a59.63,59.63,0,0,1,4.37-9.26,2.19,2.19,0,0,1-2.52-1H4.41V32.74H0v11H4.2a2.18,2.18,0,1,1,0,2.23H3.6v4.65ZM6.08,43.48a1.34,1.34,0,1,1-1.34,1.34,1.34,1.34,0,0,1,1.34-1.34Zm9-16.22a1.34,1.34,0,1,0,1.34,1.34,1.34,1.34,0,0,0-1.34-1.34ZM34,13.86a1.34,1.34,0,1,0,1.34,1.34A1.34,1.34,0,0,0,34,13.86ZM23.45,20.62A1.34,1.34,0,1,0,24.79,22a1.34,1.34,0,0,0-1.34-1.34Zm3-7.81a1.34,1.34,0,1,0,1.34,1.34,1.34,1.34,0,0,0-1.34-1.34Zm-15,25.09a1.34,1.34,0,1,1-1.34,1.34,1.34,1.34,0,0,1,1.34-1.34Zm2.15,1a2.19,2.19,0,0,0-4-.74H6.64V35h4.88a2.18,2.18,0,1,0,0-2.23H6.64V30.51H0V8.61H18.79v7.33H8.71v5.78H6V12.27h7.09a2.18,2.18,0,1,0,0-2.23H3.79v13.9H8.71v5.77h4.53a2.18,2.18,0,1,0,0-2.23h-2.3V18.17H21V8.61h4.32v3.67a2.18,2.18,0,1,0,2.23,0V8.61H41.5V16a59.37,59.37,0,0,0-6.38,3V17.08a2.18,2.18,0,1,0-2.23,0v3.13a59.28,59.28,0,0,0-8.33,6V23.84a2.18,2.18,0,1,0-2.23,0v4.44a59.71,59.71,0,0,0-8.75,10.59Zm-.19-6.33a1.34,1.34,0,1,1-1.34,1.34,1.34,1.34,0,0,1,1.34-1.34ZM15,9.81a1.34,1.34,0,1,0,1.34,1.34A1.34,1.34,0,0,0,15,9.81Zm20.54,122a1.34,1.34,0,1,0,1.34,1.34,1.34,1.34,0,0,0-1.34-1.34Zm28.31.65a1.34,1.34,0,1,0,1.34,1.34,1.34,1.34,0,0,0-1.34-1.34Zm-9-1.87A1.34,1.34,0,1,0,56.22,132a1.34,1.34,0,0,0-1.34-1.34Zm-1-.61a2.19,2.19,0,0,0-.14,3.83v2.42H42.95v-4.7h1.88a2.18,2.18,0,1,0,0-1.49H41.46v2.37H37.59a2.18,2.18,0,1,0,0,1.49h3.87v2.34H32.32v-5.7H20.83v-4a2.18,2.18,0,1,0-1.49,0v.28H11.66v2.81a2.18,2.18,0,1,0,1.49,0v-1.32h6.19v3.75H30.83v4.21H0V117.76H3.37v11.15a2.18,2.18,0,1,0,2.23,0V117.76H8.2a2.18,2.18,0,1,0,0-2.23H0V110.9H10.15v-3.67a2.18,2.18,0,1,0-2.23,0v1.44H0V65.83H3.38V59.58a2.18,2.18,0,1,0-2.23,0v4H0V45.94H1.37v6.88H6.92A59.65,59.65,0,0,0,6,86.72H3.18V99.67a2.18,2.18,0,1,0,2.23,0V88.95H6.66a59.45,59.45,0,0,0,12.78,22.33h-.06v4.34H14.25v-3.55a2.19,2.19,0,1,0-1.49,0v5h6.61V120H15.93a2.18,2.18,0,1,0,0,1.49h4.94V112.8a59.85,59.85,0,0,0,4.5,4.17v11.67h8.77a2.18,2.18,0,1,0,0-1.49H26.85V125h8.88v-1.1A59.1,59.1,0,0,0,53.9,130Zm-7-.53a1.34,1.34,0,1,0,1.34,1.34,1.34,1.34,0,0,0-1.34-1.34Zm-10.69-2.95a1.34,1.34,0,1,0,1.34,1.34,1.34,1.34,0,0,0-1.34-1.34Zm-1.95-3.44a59.61,59.61,0,0,1-7.39-4.94v5.38h7.39v-.43Zm-14.15.05a1.34,1.34,0,1,0,1.34,1.34,1.34,1.34,0,0,0-1.34-1.34Zm-7.68,7.2a1.34,1.34,0,1,0,1.34,1.34,1.34,1.34,0,0,0-1.34-1.34Zm1.47-11a1.34,1.34,0,1,0,1.34,1.34,1.34,1.34,0,0,0-1.34-1.34Zm-.36-10.69A1.34,1.34,0,1,0,14.85,110a1.34,1.34,0,0,0-1.34-1.34Zm-9,20.78a1.34,1.34,0,1,0,1.34,1.34,1.34,1.34,0,0,0-1.34-1.34Zm5.6-14.14a1.34,1.34,0,1,0,1.34,1.34,1.34,1.34,0,0,0-1.34-1.34ZM9,104a1.34,1.34,0,1,0,1.34,1.34A1.34,1.34,0,0,0,9,104ZM4.29,100.2a1.34,1.34,0,1,0,1.34,1.34,1.34,1.34,0,0,0-1.34-1.34Zm-2-43.84A1.34,1.34,0,1,0,3.61,57.7a1.34,1.34,0,0,0-1.34-1.34ZM120,50.59a59.67,59.67,0,0,0-4.37-9.26,2.19,2.19,0,0,0,2.52-1h5.14V32.74h4.41v11h-4.2a2.18,2.18,0,1,0,0,2.23h.6v4.65Zm1.61-7.11a1.34,1.34,0,1,0,1.34,1.34,1.34,1.34,0,0,0-1.34-1.34Zm-9-16.22a1.34,1.34,0,1,1-1.34,1.34,1.34,1.34,0,0,1,1.34-1.34ZM93.67,13.86a1.34,1.34,0,1,1-1.34,1.34,1.34,1.34,0,0,1,1.34-1.34Zm10.56,6.76A1.34,1.34,0,1,1,102.89,22a1.34,1.34,0,0,1,1.34-1.34Zm-3-7.81a1.34,1.34,0,1,1-1.34,1.34,1.34,1.34,0,0,1,1.34-1.34Zm15,25.09a1.34,1.34,0,1,0,1.34,1.34,1.34,1.34,0,0,0-1.34-1.34Zm-2.15,1a2.19,2.19,0,0,1,4-.74H121V35h-4.88a2.18,2.18,0,1,1,0-2.23H121V30.51h6.63V8.61H108.89v7.33H119v5.78h2.69V12.27h-7.09a2.18,2.18,0,1,1,0-2.23h9.32v13.9H119v5.77h-4.53a2.18,2.18,0,1,1,0-2.23h2.3V18.17H106.66V8.61h-4.32v3.67a2.18,2.18,0,1,1-2.23,0V8.61H86.18V16a59.4,59.4,0,0,1,6.38,3V17.08a2.18,2.18,0,1,1,2.23,0v3.13a59.32,59.32,0,0,1,8.33,6V23.84a2.18,2.18,0,1,1,2.23,0v4.44a59.71,59.71,0,0,1,8.75,10.59Zm.19-6.33a1.34,1.34,0,1,0,1.34,1.34,1.34,1.34,0,0,0-1.34-1.34Zm-1.6-22.73a1.34,1.34,0,1,1-1.34,1.34,1.34,1.34,0,0,1,1.34-1.34Zm-20.54,122a1.34,1.34,0,1,1-1.34,1.34,1.34,1.34,0,0,1,1.34-1.34ZM72.8,130.64A1.34,1.34,0,1,0,74.14,132a1.34,1.34,0,0,0-1.34-1.34Zm1-.61a2.19,2.19,0,0,1,.14,3.83v2.42H84.73v-4.7H82.85a2.18,2.18,0,1,1,0-1.49h3.36v2.37h3.87a2.18,2.18,0,1,1,0,1.49H86.22v2.34h9.15v-5.7h11.49v-4a2.18,2.18,0,1,1,1.49,0v.28H116v2.81a2.18,2.18,0,1,1-1.49,0v-1.32h-6.19v3.75H96.85v4.21h30.83V117.76h-3.37v11.15a2.18,2.18,0,1,1-2.23,0V117.76h-2.6a2.18,2.18,0,1,1,0-2.23h8.2V110.9H117.52v-3.67a2.18,2.18,0,1,1,2.23,0v1.44h7.92V65.83H124.3V59.58a2.18,2.18,0,1,1,2.23,0v4h1.15V45.94h-1.37v6.88h-5.55a59.65,59.65,0,0,1,.91,33.9h2.84V99.67a2.18,2.18,0,1,1-2.23,0V88.95H121a59.45,59.45,0,0,1-12.78,22.33h.06v4.34h5.13v-3.55a2.18,2.18,0,1,1,1.49,0v5H108.3V120h3.45a2.18,2.18,0,1,1,0,1.49h-4.94V112.8a59.82,59.82,0,0,1-4.5,4.17v11.67H93.55a2.18,2.18,0,1,1,0-1.49h7.28V125H92v-1.1A59.1,59.1,0,0,1,73.77,130Zm7-.53a1.34,1.34,0,1,1-1.34,1.34,1.34,1.34,0,0,1,1.34-1.34Zm10.69-2.95a1.34,1.34,0,1,1-1.34,1.34,1.34,1.34,0,0,1,1.34-1.34Zm1.95-3.44a59.61,59.61,0,0,0,7.39-4.94v5.38H93.44v-.43Zm14.15.05a1.34,1.34,0,1,1-1.34,1.34,1.34,1.34,0,0,1,1.34-1.34Zm7.68,7.2a1.34,1.34,0,1,1-1.34,1.34,1.34,1.34,0,0,1,1.34-1.34Zm-1.47-11a1.34,1.34,0,1,1-1.34,1.34,1.34,1.34,0,0,1,1.34-1.34Zm.36-10.69a1.34,1.34,0,1,1-1.34,1.34,1.34,1.34,0,0,1,1.34-1.34Zm9,20.78a1.34,1.34,0,1,1-1.34,1.34,1.34,1.34,0,0,1,1.34-1.34Zm-5.6-14.14a1.34,1.34,0,1,1-1.34,1.34,1.34,1.34,0,0,1,1.34-1.34Zm1-11.3a1.34,1.34,0,1,1-1.34,1.34,1.34,1.34,0,0,1,1.34-1.34Zm4.75-3.81a1.34,1.34,0,1,1-1.34,1.34,1.34,1.34,0,0,1,1.34-1.34Zm2-43.84a1.34,1.34,0,1,1-1.34,1.34A1.34,1.34,0,0,1,125.41,56.36Z"/><path class="cls-4" d="M51.94,18.79,55.72,15a1.3,1.3,0,1,0-.78-.73l-3,3V10.78l1.45-1.45V8.61h5.76V9.86L59,10a1.33,1.33,0,1,0,1.41,0l-.17-.11V8.61h3.32V31a45.82,45.82,0,0,0-11.59,1.57V28.69L59,21.6l.2,0a1.33,1.33,0,1,0-1-1l0,.2-6.33,6.33V18.79ZM56.13,13a.79.79,0,1,0,.79.79.79.79,0,0,0-.79-.79Zm3.39,6.57a.79.79,0,1,0,.79.79.79.79,0,0,0-.79-.79Zm7.64-11V31Q65.87,31,64.6,31V8.61Z"/><path class="cls-4" d="M73.6,8.61a1.42,1.42,0,0,0,2,0h.79v2.53h-.48a1.42,1.42,0,1,0,0,1.06h.48V32.38a49.86,49.86,0,0,0-12.12-1.45A46.76,46.76,0,0,0,51.94,32.5V29.81a49.74,49.74,0,0,1,12.34-1.48q2,0,4,.14V8.61Zm1,2.3a.79.79,0,1,0,.79.79A.79.79,0,0,0,74.61,10.91Z"/><circle class="cls-5" cx="70.55" cy="19.44" r="5.53"/><path class="cls-6" d="M55.11,8.61a4,4,0,0,0,7.93,0Z"/><path class="cls-3" d="M59.07,4.65a4,4,0,0,0-4,4H63A4,4,0,0,0,59.07,4.65Z"/></g></g></svg>