<svg xmlns="http://www.w3.org/2000/svg" xmlns:xlink="http://www.w3.org/1999/xlink" viewBox="0 0 130.73 139.55"><defs><style>.cls-1,.cls-2,.cls-4{fill-rule:evenodd;}.cls-1{fill:url(#GradientFill_1);}.cls-2{fill:gray;}.cls-3{fill:#86010e;}.cls-4{fill:#8a010e;}</style><linearGradient id="GradientFill_1" x1="65.7" y1="-24.21" x2="65.7" y2="155" gradientUnits="userSpaceOnUse"><stop offset="0" stop-color="#902529"/><stop offset="1" stop-color="#3e070d"/></linearGradient></defs><title>Maroon on grey</title><g id="Layer_2" data-name="Layer 2"><g id="Layer_1-2" data-name="Layer 1"><path class="cls-1" d="M86.57,17.25a59.49,59.49,0,1,1-41.74,0V8.82h3.11V19.45a56.38,56.38,0,1,0,35.52,0V8.82h3.11v8.44ZM46,0a3.28,3.28,0,1,0,2.71,5.12h.81V8.82h0v4.37l0,0h0L53.18,9.5h0V1.43h-4.5A3.27,3.27,0,0,0,46,0ZM85.43,0a3.28,3.28,0,0,0-2.71,1.43h-4.5v10h3.69V5.12h.81A3.28,3.28,0,1,0,85.43,0ZM20.19,42.72h2.1l3-3V36.17a54.91,54.91,0,0,0-5.12,6.55Zm20.8-7-1.09.71V31L53.18,17.7V11L52,12.18l-2.5,2.5,0,0v6a54.32,54.32,0,0,0-10.65,4.61L34,30.17V39.8L11.87,63.55A55,55,0,0,0,11.05,73q0,.69,0,1.37L21.23,64.19q-.18.93-.33,1.87l-9.78,9.78a54.62,54.62,0,0,0,25.63,43.51l5-5v-2.59l1.07.61h0v2.42l-5.12,5.12q2.11,1.26,4.33,2.33l2.37-2.37a1.35,1.35,0,0,1-.1-.52,1.33,1.33,0,1,1,.9,1.26l-2.12,2.12a54.24,54.24,0,0,0,10.12,3.45v-9.69l1.09.27v9.66q1.3.28,2.63.49v-9.62l1.09.18v9.6a54.7,54.7,0,0,0,59.1-35.58l-5.45,5.44h-8.53q.3-.54.59-1.09h7.48l6.68-6.67A54.62,54.62,0,0,0,120.35,73q0-.46,0-.91L107.88,84.53q.19-.93.33-1.88L120.3,70.58a54.54,54.54,0,0,0-1.89-12.07l-6.78,6.78v6.44a1.53,1.53,0,0,1,1.06,1.52,1.62,1.62,0,0,1-3.25,0,1.54,1.54,0,0,1,1.1-1.54V64.84l7.53-7.53a54.07,54.07,0,0,0-2.3-6.27L99.43,67.35v3H98.34V66.9L115.28,50q-1-2.26-2.29-4.4L92.49,66.09v4.22H91.4V65.63l21-21q-1.22-2-2.61-3.9l-.66-.88a55,55,0,0,0-10-10l-3.48,3.48a1.65,1.65,0,1,1-.77-.77l3.37-3.37q-1.44-1.07-3-2.05h0a54.54,54.54,0,0,0-6.65-3.68l-5.26,5.26a1.57,1.57,0,1,1-.77-.77l5-5a54.24,54.24,0,0,0-5.77-2.15l0,0V12.5H78.22V30.41A54,54,0,0,0,65.81,29a50.92,50.92,0,0,0-12.63,1.51V29.37L51.6,31q-1,.31-2.07.67v-.13l3.66-3.66V19.24L41,31.43v4.31Zm59.26,11q-7.33-7.94-15-11.18a49.13,49.13,0,0,0-19.47-3.85q-19.88,0-32.31,13.94A40,40,0,0,0,23,73.14a42.86,42.86,0,0,0,5.66,21.52A39.3,39.3,0,0,0,44.1,110a45,45,0,0,0,22.15,5.39q11.6,0,20.23-4.92a38,38,0,0,0,14-14.32,38.91,38.91,0,0,0,5.42-19.84L105.82,73H65.72V87.25h23.1A23.43,23.43,0,0,1,80.1,97.61a24.91,24.91,0,0,1-13.25,3.29,28,28,0,0,1-20.34-8,26.35,26.35,0,0,1-8.24-19.58,25.6,25.6,0,0,1,7.94-19,26.94,26.94,0,0,1,19.71-7.81q13.52,0,23.65,10.73L100.25,46.7ZM79.86,89.91H78.32l-8.15,8.15q.9-.1,1.8-.26l7.9-7.9ZM63.05,79.73V78.64H42.94l-1.2,1.2q.16.6.35,1.19l1.31-1.31ZM76,117.19q-.93.18-1.87.33l-1,1a1.76,1.76,0,1,0,.89,1.2.51.51,0,0,0-.07-.24l-.07-.17L76,117.19Zm-26.14-1.7-1.09-.39v1.77l-.18.11A1.37,1.37,0,1,0,50,117l-.18-.11v-1.38Zm-10.74-5.43-1-.76v2a1.23,1.23,0,0,0-.76,1.21,1.4,1.4,0,0,0,1.33,1.33,1.33,1.33,0,0,0,.48-2.57v-1.17Zm-8.95-8.47-.66-.86-1,.77-.22-.07a1.63,1.63,0,1,0,1.06,1.06l-.07-.22.89-.67Zm-9.5-23.46q-.07-.71-.13-1.42l-2.07,2.07-.21-.07a1.6,1.6,0,1,0,1.05,1.05l-.07-.22,1.42-1.42ZM65.17,49.21q-.82,0-1.62.08L52.78,59.94H45q-.37.54-.71,1.09h9L65.17,49.21ZM52,93.92q.46.31.93.6l.46-.46a1.45,1.45,0,1,0-.78-.76l-.62.62Zm3.42,1.94q.53.25,1.07.47l3.06-3.06a1.33,1.33,0,1,0-.77-.77l-3.37,3.37Zm5.08,1.71q.64.14,1.29.25l4.43-4.43a1.34,1.34,0,1,0-.77-.77l-5,5Zm-9.33-7.32a.81.81,0,1,0,.81.81.81.81,0,0,0-.81-.81Zm2.77,1.67a.81.81,0,1,0,.81.81.81.81,0,0,0-.81-.81ZM94.22,33.19a.8.8,0,1,0,.8.8.8.8,0,0,0-.8-.8Zm-22,86a.88.88,0,1,0,.88.88.88.88,0,0,0-.88-.88Zm9.8-90.68a.81.81,0,1,0,.81.81.81.81,0,0,0-.81-.81Zm29,43.92a.81.81,0,1,0,.81.81.81.81,0,0,0-.81-.81ZM49.27,117.3a.81.81,0,1,0,.81.81.81.81,0,0,0-.81-.81Zm-3.63,1.27a.81.81,0,1,0,.81.81.81.81,0,0,0-.81-.81Zm-7.07-6.91a.81.81,0,1,0,.81.81.81.81,0,0,0-.81-.81Zm-10.85-9.49a.81.81,0,1,0,.81.81.81.81,0,0,0-.81-.81Zm39-10.85a.81.81,0,1,0,.81.81.81.81,0,0,0-.81-.81ZM60,91.18a.81.81,0,1,0,.81.81.81.81,0,0,0-.81-.81ZM17.73,79.44a.81.81,0,1,0,.81.81.81.81,0,0,0-.81-.81ZM49.44,92l.83.71.33-.33a1.39,1.39,0,1,0-.77-.77l-.39.39ZM12.23,61.64,33,39.34V29.72l.12-.12c.43-.43,1.25-1.18,2.23-2A55,55,0,0,0,26.4,35v5.14l-3.66,3.66H19.48A54.32,54.32,0,0,0,12.23,61.64Z"/><path class="cls-2" d="M65.36,139.29a2.24,2.24,0,0,0,.76-4.34v-1a61.36,61.36,0,0,0,6.9-.43,2.24,2.24,0,0,0,.37,3.57v2.48H57.33v-2.48a2.24,2.24,0,0,0,.37-3.57,61.36,61.36,0,0,0,6.9.43v1a2.24,2.24,0,0,0,.76,4.34ZM7.88,51.8a61.08,61.08,0,0,1,4.48-9.48,2.24,2.24,0,0,1-2.58-1H4.51v-7.8H0V44.76H4.3A2.24,2.24,0,1,1,4.3,47H3.68V51.8ZM6.23,44.52A1.37,1.37,0,1,1,4.85,45.9a1.37,1.37,0,0,1,1.38-1.37Zm9.25-16.61a1.37,1.37,0,1,0,1.37,1.38,1.38,1.38,0,0,0-1.37-1.38ZM34.82,14.19a1.37,1.37,0,1,0,1.37,1.37,1.37,1.37,0,0,0-1.37-1.37ZM24,21.11a1.37,1.37,0,1,0,1.37,1.37A1.37,1.37,0,0,0,24,21.11Zm3.07-8a1.37,1.37,0,1,0,1.38,1.37,1.38,1.38,0,0,0-1.38-1.37ZM11.7,38.81a1.37,1.37,0,1,1-1.37,1.37,1.37,1.37,0,0,1,1.37-1.37Zm2.2,1A2.24,2.24,0,0,0,9.78,39h-3v-3.2h5a2.24,2.24,0,1,0,0-2.28h-5V31.24H0V8.82H19.24v7.5H8.92v5.91H6.16V12.57h7.26a2.24,2.24,0,1,0,0-2.28H3.88V24.51h5v5.91h4.64a2.24,2.24,0,1,0,0-2.28H11.2V18.6H21.52V8.82h4.42v3.75a2.24,2.24,0,1,0,2.28,0V8.82H42.49v7.52A60.8,60.8,0,0,0,36,19.39v-1.9a2.24,2.24,0,1,0-2.28,0v3.2a60.71,60.71,0,0,0-8.53,6.18V24.41a2.24,2.24,0,1,0-2.28,0V29a61.13,61.13,0,0,0-9,10.84Zm-.19-6.48a1.37,1.37,0,1,1-1.38,1.37,1.37,1.37,0,0,1,1.38-1.37ZM15.35,10a1.37,1.37,0,1,0,1.37,1.37A1.37,1.37,0,0,0,15.35,10Zm21,125a1.37,1.37,0,1,0,1.37,1.37A1.37,1.37,0,0,0,36.38,135Zm29,.67a1.37,1.37,0,1,0,1.37,1.37,1.37,1.37,0,0,0-1.37-1.37Zm-9.17-1.92a1.37,1.37,0,1,0,1.37,1.37,1.37,1.37,0,0,0-1.37-1.37Zm-1-.63a2.24,2.24,0,0,0-.14,3.93v2.48H44v-4.82H45.9a2.24,2.24,0,1,0,0-1.52H42.45v2.42h-4a2.24,2.24,0,1,0,0,1.52h4v2.39H33.09v-5.83H21.32v-4.12a2.24,2.24,0,1,0-1.52,0v.29H11.94v2.88a2.24,2.24,0,1,0,1.52,0V131.4H19.8v3.84H31.57v4.31H0v-19H3.45V132a2.24,2.24,0,1,0,2.28,0V120.58H8.4a2.24,2.24,0,1,0,0-2.28H0v-4.75H10.4v-3.76a2.24,2.24,0,1,0-2.28,0v1.47H0V67.4H3.46V61a2.24,2.24,0,1,0-2.28,0v4.11H0V47H1.4v7H7.09a61.08,61.08,0,0,0-.93,34.71H3.25V102a2.24,2.24,0,1,0,2.28,0v-11H6.81A60.88,60.88,0,0,0,19.9,113.94h-.06v4.44H14.59v-3.64a2.24,2.24,0,1,0-1.52,0v5.16h6.77v2.92H16.31a2.24,2.24,0,1,0,0,1.52h5.06V115.5a61.37,61.37,0,0,0,4.6,4.27v11.95h9a2.24,2.24,0,1,0,0-1.52H27.49V128h9.09v-1.13a60.53,60.53,0,0,0,18.62,6.25ZM48,132.59A1.37,1.37,0,1,0,49.37,134,1.38,1.38,0,0,0,48,132.59Zm-10.95-3A1.37,1.37,0,1,0,38.43,131a1.37,1.37,0,0,0-1.37-1.37Zm-2-3.52A61.11,61.11,0,0,1,27.49,121v5.5h7.57v-.44Zm-14.49.05a1.37,1.37,0,1,0,1.37,1.38,1.38,1.38,0,0,0-1.37-1.38Zm-7.86,7.37a1.37,1.37,0,1,0,1.38,1.37,1.38,1.38,0,0,0-1.38-1.37Zm1.5-11.27a1.37,1.37,0,1,0,1.38,1.37,1.37,1.37,0,0,0-1.38-1.37Zm-.37-10.95a1.37,1.37,0,1,0,1.38,1.37,1.37,1.37,0,0,0-1.38-1.37ZM4.59,132.54A1.37,1.37,0,1,0,6,133.92a1.37,1.37,0,0,0-1.37-1.37Zm5.73-14.48a1.37,1.37,0,1,0,1.37,1.37,1.37,1.37,0,0,0-1.37-1.37ZM9.26,106.5a1.37,1.37,0,1,0,1.38,1.37,1.37,1.37,0,0,0-1.38-1.37ZM4.4,102.6A1.37,1.37,0,1,0,5.77,104,1.37,1.37,0,0,0,4.4,102.6ZM2.32,57.7a1.37,1.37,0,1,0,1.37,1.37A1.37,1.37,0,0,0,2.32,57.7Zm120.53-5.9a61.1,61.1,0,0,0-4.48-9.48,2.24,2.24,0,0,0,2.58-1h5.27v-7.8h4.51V44.76h-4.3a2.24,2.24,0,1,0,0,2.28H127V51.8Zm1.65-7.28a1.37,1.37,0,1,0,1.38,1.37,1.38,1.38,0,0,0-1.38-1.37Zm-9.25-16.61a1.37,1.37,0,1,1-1.37,1.38,1.38,1.38,0,0,1,1.37-1.38ZM95.91,14.19a1.37,1.37,0,1,1-1.37,1.37,1.37,1.37,0,0,1,1.37-1.37Zm10.81,6.92a1.37,1.37,0,1,1-1.37,1.37,1.37,1.37,0,0,1,1.37-1.37Zm-3.07-8a1.37,1.37,0,1,1-1.38,1.37,1.37,1.37,0,0,1,1.38-1.37ZM119,38.81a1.37,1.37,0,1,0,1.37,1.37A1.37,1.37,0,0,0,119,38.81Zm-2.2,1A2.24,2.24,0,0,1,121,39h3v-3.2h-5a2.24,2.24,0,1,1,0-2.28h5V31.24h6.79V8.82H111.49v7.5h10.32v5.91h2.75V12.57H117.3a2.24,2.24,0,1,1,0-2.28h9.54V24.51h-5v5.91h-4.64a2.24,2.24,0,1,1,0-2.28h2.35V18.6H109.21V8.82h-4.42v3.75a2.24,2.24,0,1,1-2.28,0V8.82H88.24v7.52a60.77,60.77,0,0,1,6.53,3.05v-1.9a2.24,2.24,0,1,1,2.28,0v3.2a60.72,60.72,0,0,1,8.53,6.18V24.41a2.24,2.24,0,1,1,2.28,0V29a61.13,61.13,0,0,1,9,10.84Zm.19-6.48a1.37,1.37,0,1,0,1.38,1.37A1.37,1.37,0,0,0,117,33.33ZM115.38,10A1.37,1.37,0,1,1,114,11.42,1.37,1.37,0,0,1,115.38,10Zm-21,125A1.37,1.37,0,1,1,93,136.39,1.37,1.37,0,0,1,94.35,135Zm-19.81-1.25a1.37,1.37,0,1,0,1.37,1.37,1.37,1.37,0,0,0-1.37-1.37Zm1-.63a2.24,2.24,0,0,1,.14,3.93v2.48H86.76v-4.82H84.83a2.24,2.24,0,1,1,0-1.52h3.44v2.42h4a2.24,2.24,0,1,1,0,1.52h-4v2.39h9.36v-5.83h11.76v-4.12a2.24,2.24,0,1,1,1.52,0v.29h7.86v2.88a2.24,2.24,0,1,1-1.52,0V131.4h-6.34v3.84H99.16v4.31h31.57v-19h-3.45V132a2.24,2.24,0,1,1-2.28,0V120.58h-2.67a2.24,2.24,0,1,1,0-2.28h8.4v-4.75h-10.4v-3.76a2.24,2.24,0,1,1,2.28,0v1.47h8.11V67.4h-3.46V61a2.24,2.24,0,1,1,2.28,0v4.11h1.18V47h-1.4v7h-5.68a61.08,61.08,0,0,1,.93,34.71h2.9V102a2.24,2.24,0,1,1-2.28,0v-11h-1.28a60.87,60.87,0,0,1-13.09,22.87h.06v4.44h5.25v-3.64a2.24,2.24,0,1,1,1.52,0v5.16h-6.77v2.92h3.53a2.24,2.24,0,1,1,0,1.52h-5.06V115.5a61.29,61.29,0,0,1-4.6,4.27v11.95h-9a2.24,2.24,0,1,1,0-1.52h7.46V128H94.15v-1.13a60.53,60.53,0,0,1-18.62,6.25Zm7.19-.54A1.37,1.37,0,1,1,81.36,134a1.37,1.37,0,0,1,1.38-1.38Zm10.95-3A1.37,1.37,0,1,1,92.3,131a1.37,1.37,0,0,1,1.37-1.37Zm2-3.52a61.09,61.09,0,0,0,7.57-5.06v5.5H95.68v-.44Zm14.49.05a1.37,1.37,0,1,1-1.37,1.38,1.38,1.38,0,0,1,1.37-1.38Zm7.86,7.37a1.37,1.37,0,1,1-1.38,1.37,1.38,1.38,0,0,1,1.38-1.37Zm-1.5-11.27a1.37,1.37,0,1,1-1.38,1.37,1.37,1.37,0,0,1,1.38-1.37Zm.37-10.95a1.37,1.37,0,1,1-1.37,1.37,1.37,1.37,0,0,1,1.37-1.37Zm9.24,21.27a1.37,1.37,0,1,1-1.37,1.37,1.37,1.37,0,0,1,1.37-1.37Zm-5.73-14.48a1.37,1.37,0,1,1-1.37,1.37,1.37,1.37,0,0,1,1.37-1.37Zm1.07-11.57a1.37,1.37,0,1,1-1.38,1.37,1.37,1.37,0,0,1,1.38-1.37Zm4.86-3.9A1.37,1.37,0,1,1,125,104a1.37,1.37,0,0,1,1.37-1.37Zm2.08-44.89A1.37,1.37,0,1,1,127,59.08,1.37,1.37,0,0,1,128.41,57.7Z"/><path class="cls-2" d="M53.18,19.24,57,15.37a1.33,1.33,0,1,0-.8-.74L53.18,17.7V11l1.48-1.48V8.82h5.9v1.28l-.18.11a1.37,1.37,0,1,0,1.44,0l-.18-.11V8.82h3.4V31.69a46.91,46.91,0,0,0-11.87,1.6V29.37l7.26-7.26.2,0a1.35,1.35,0,0,0,.31,0,1.36,1.36,0,1,0-1.33-1.05l0,.2-6.49,6.49V19.24Zm4.29-5.93a.81.81,0,1,0,.81.81.81.81,0,0,0-.81-.81ZM60.94,20a.81.81,0,1,0,.81.81.81.81,0,0,0-.81-.81ZM68.77,8.82v23q-1.32-.07-2.63-.08V8.82Z"/><path class="cls-2" d="M75.36,8.82a1.45,1.45,0,0,0,2,0h.81v2.59h-.49a1.45,1.45,0,1,0,0,1.09h.49V33.15a51.07,51.07,0,0,0-12.41-1.48,47.88,47.88,0,0,0-12.63,1.61V30.52A50.93,50.93,0,0,1,65.81,29q2,0,4,.14V8.82Zm1,2.36a.81.81,0,1,0,.81.81A.81.81,0,0,0,76.4,11.18Z"/><circle class="cls-3" cx="72.24" cy="19.91" r="5.66"/><path class="cls-4" d="M56.42,8.82a4.06,4.06,0,0,0,8.12,0Z"/><path class="cls-2" d="M60.48,4.76a4.06,4.06,0,0,0-4.06,4.06h8.12A4.06,4.06,0,0,0,60.48,4.76Z"/></g></g></svg>