<svg xmlns="http://www.w3.org/2000/svg" xmlns:xlink="http://www.w3.org/1999/xlink" width="149" height="174"><defs><path id="a" d="M60 60H0V0h60z"/></defs><g fill="none" fill-rule="evenodd"><path fill="#FFF" d="M127.5 37h-27c-.8 0-1.5-.7-1.5-1.5s.7-1.5 1.5-1.5h27c.8 0 1.5.7 1.5 1.5s-.7 1.5-1.5 1.5M127.5 47h-37c-.8 0-1.5-.7-1.5-1.5s.7-1.5 1.5-1.5h37c.8 0 1.5.7 1.5 1.5s-.7 1.5-1.5 1.5"/><path fill="#EEEAE1" d="M53 95a4 4 0 0 1-4-4 4 4 0 0 1 4-4h72a4 4 0 0 1 4 4 4 4 0 0 1-4 4H53z" opacity=".2"/><path fill="#931532" d="M81 75H53a4 4 0 0 1-4-4 4 4 0 0 1 4-4h28a4 4 0 0 1 4 4 4 4 0 0 1-4 4"/><path fill="#EEEAE1" d="M125 115H53a4 4 0 0 1-4-4 4 4 0 0 1 4-4h72a4 4 0 0 1 4 4 4 4 0 0 1-4 4M125 135H53a4 4 0 0 1-4-4 4 4 0 0 1 4-4h72a4 4 0 0 1 4 4 4 4 0 0 1-4 4M97 155H53a4 4 0 0 1-4-4 4 4 0 0 1 4-4h44a4 4 0 0 1 4 4 4 4 0 0 1-4 4" opacity=".2"/><path fill="#FFF" d="M137 14H65.5c-.8 0-1.5.7-1.5 1.5s.7 1.5 1.5 1.5H137c5 0 9 4 9 9v136c0 5-4 9-9 9H41c-5 0-9-4-9-9V68.1c-.3-.6-.8-1.1-1.5-1.1-.6 0-1.2.4-1.4 1H29v94a12 12 0 0 0 12 12h96a12 12 0 0 0 12-12V26a12 12 0 0 0-12-12"/><g><mask id="b" fill="#fff"><use xlink:href="#a"/></mask><path fill="#931532" d="M43 41l-2 2-11-10.9-11 11-2-2.2L27.8 30l-11-11 2.2-2L30 27.8l11-11 2 2.2L32.2 30l11 11zM30 0a30 30 0 1 0 0 60 30 30 0 0 0 0-60z" mask="url(#b)"/></g></g></svg>
