<svg xmlns="http://www.w3.org/2000/svg" width="154" height="154"><g fill="none" fill-rule="evenodd"><path fill="#EEEAE1" fill-opacity=".2" d="M94 109.7c-4.8-3.2-6-23.2-12.2-21.7-8.1 2-14.9 9-29 11h-8.5a44 44 0 0 0 62 25c-1.9-1.9-3.3-4.4-5-6.4M98 51c-3 24.4-9.3 25-9.3 31.3 0 5.7 12.7 7 19.1 9.9 2.5 1.7 15 12.3 16.5 14.4a44 44 0 0 0-26.3-64v8.5z"/><path fill="#931532" d="M41 45a5 5 0 1 1 0-10 5 5 0 0 1 0 10m38.7-20H38a12 12 0 0 0-12 12v42.8a38.4 38.4 0 0 0 16 7.6V85a44 44 0 0 1 45.7-44c-1.3-5.7-4-11.2-8-16M143.8 143.8a4 4 0 0 1-5.6 0L111.3 117a4 4 0 0 1 0-5.7 4 4 0 0 1 5.7 0l26.8 26.9a4 4 0 0 1 0 5.6"/><path fill="#FFF" d="M134 25h-27.5c-.8 0-1.5.7-1.5 1.5s.7 1.5 1.5 1.5H134c5 0 9 4 9 9v76.5c0 .8.7 1.5 1.5 1.5s1.5-.7 1.5-1.5V37a12 12 0 0 0-12-12M113 142H38c-5 0-9-4-9-9v-26.5c0-.8-.7-1.5-1.5-1.5s-1.5.7-1.5 1.5V133a12 12 0 0 0 12 12h75c.8 0 1.5-.7 1.5-1.5s-.7-1.5-1.5-1.5"/><path fill="#931532" d="M134 42a5 5 0 1 1-10 0 5 5 0 0 1 10 0"/><path fill="#FFF" d="M50 87a37 37 0 1 1 0-74 37 37 0 0 1 0 74m0-77a40 40 0 1 0 0 80 40 40 0 0 0 0-80m98 138a10 10 0 0 1-7 3 10 10 0 0 1-7-3l-40.4-40.2a7 7 0 0 1-2-5.1c.1-4.5-1.8-9-5.2-12.4l-3-3c1.5-1.4 2.9-2.8 4.2-4.3l3.5 3.5a17 17 0 0 0 11.8 5.1 7 7 0 0 1 4.9 2L148 134a10 10 0 0 1 2.9 7.1c0 2.7-1 5.2-3 7M3 50a47 47 0 1 1 94.1.1A47 47 0 0 1 3 50m147.2 81.8L110 91.5a10 10 0 0 0-7-2.9 14 14 0 0 1-9.7-4.3l-3.7-3.7a50 50 0 1 0-8.4 8.5l3.2 3.3c2.7 2.7 4.4 6.4 4.3 10.2 0 2.6 1 5.3 3 7.3l40.2 40.3a13 13 0 0 0 18.4 0c5-5 5-13.3 0-18.4"/></g></svg>
