<svg xmlns="http://www.w3.org/2000/svg" xmlns:xlink="http://www.w3.org/1999/xlink" width="215" height="173"><defs><path id="a" d="M0 .5v60h60V.5H0z"/><path id="c" d="M42.5 8.5v-8H.5v8z"/><path id="e" d="M214.5 110.5v-8h-42v8h42z"/></defs><g fill="none" fill-rule="evenodd"><g><g transform="translate(0 56)"><mask id="b" fill="#fff"><use xlink:href="#a"/></mask><path fill="#931531" d="M33 41.6l-2-2.2 7.4-7.4H14v-3h24.4l-7.5-7.4 2.2-2.2 11 11.1-11 11zM30 .5a30 30 0 1 0 0 60 30 30 0 0 0 0-60z" mask="url(#b)"/></g><path fill="#FFF" d="M182.4 54c-.6 0-1.1-.3-1.4-.9a83.5 83.5 0 0 0-150.2-5.9 1.5 1.5 0 0 1-2.6-1.4 86.4 86.4 0 0 1 155.6 6.1 1.5 1.5 0 0 1-1.4 2.1m-77 92.2c-11.6 0-22-2.6-31.2-7.6A55.3 55.3 0 0 1 53.7 119a1.5 1.5 0 1 1 2.6-1.6c4.9 8 11.4 14.3 19.4 18.7a60.5 60.5 0 0 0 29.6 7.2c10.4 0 19.4-2.2 27-6.6a50.8 50.8 0 0 0 18.7-19 52.2 52.2 0 0 0 7.3-26.5l-.1-3.1h-52v16.5h32.4l-1 2.2a33.8 33.8 0 0 1-12.5 14.8 35.8 35.8 0 0 1-19 4.8 40 40 0 0 1-28.9-11.4 37.7 37.7 0 0 1-11.7-28 38.6 38.6 0 0 1 39.4-38.2c12.2 0 23.1 4.7 32.4 14.1L150 50.4a58.5 58.5 0 0 0-45.2-19 55.4 55.4 0 0 0-48 24.8 1.5 1.5 0 1 1-2.5-1.7 58.3 58.3 0 0 1 50.5-26.2c9.7 0 19 1.8 27.3 5.4 7.2 3 14.3 8.3 21 15.7l1 1-16.7 16.7-1-1.1a41.5 41.5 0 0 0-31.4-14.3A35.7 35.7 0 0 0 68.5 87c0 10.1 3.6 18.8 10.8 25.8 7.2 7 16.3 10.6 26.9 10.6 6.8 0 12.7-1.5 17.3-4.3 4.2-2.6 7.6-6.3 10.3-11.5h-30.7V85h58l.2 6c0 9.9-2.6 19.3-7.7 28a53.8 53.8 0 0 1-19.8 20.2c-8 4.7-17.6 7-28.5 7m-.8 26.8c-32 0-61.2-17.5-76.3-45.8a1.5 1.5 0 1 1 2.6-1.4 83.4 83.4 0 0 0 150.2-5.9 1.5 1.5 0 1 1 2.8 1.2 86.5 86.5 0 0 1-79.3 51.9"/><path fill="#EEEAE1" fill-opacity=".2" d="M199.5 90.5h-23a4 4 0 0 1-4-4 4 4 0 0 1 4-4h23a4 4 0 0 1 4 4 4 4 0 0 1-4 4"/><g transform="translate(172 62)"><mask id="d" fill="#fff"><use xlink:href="#c"/></mask><path fill="#931532" d="M38.5 8.5h-34a4 4 0 0 1-4-4 4 4 0 0 1 4-4h34a4 4 0 0 1 4 4 4 4 0 0 1-4 4" mask="url(#d)"/></g><mask id="f" fill="#fff"><use xlink:href="#e"/></mask><path fill="#EEEAE1" fill-opacity=".2" d="M210.5 110.5h-34a4 4 0 0 1-4-4 4 4 0 0 1 4-4h34a4 4 0 0 1 4 4 4 4 0 0 1-4 4" mask="url(#f)"/></g></g></svg>
