<svg xmlns="http://www.w3.org/2000/svg" xmlns:xlink="http://www.w3.org/1999/xlink" viewBox="0 0 128.88 137.57"><defs><style>.cls-1{fill:url(#GradientFill_1);}.cls-2{fill:url(#GradientFill_1-2);}.cls-3,.cls-5{fill:#fff;}.cls-3,.cls-4{fill-rule:evenodd;}.cls-4{fill:gray;}</style><linearGradient id="GradientFill_1" x1="84.21" y1="2.33" x2="84.21" y2="4.13" gradientUnits="userSpaceOnUse"><stop offset="0" stop-color="#902529"/><stop offset="1" stop-color="#3e070d"/></linearGradient><linearGradient id="GradientFill_1-2" x1="45.32" y1="2.33" x2="45.32" y2="4.13" xlink:href="#GradientFill_1"/></defs><title>transparent</title><g id="Layer_2" data-name="Layer 2"><g id="Layer_1-2" data-name="Layer 1"><circle class="cls-1" cx="84.21" cy="3.23" r="1.55"/><circle class="cls-2" cx="45.32" cy="3.23" r="1.55"/><path class="cls-3" d="M85.34,17A58.64,58.64,0,1,1,44.2,17V8.69h3.06V19.18a55.58,55.58,0,1,0,35,0V8.69h3.06V17Zm-40-17A3.23,3.23,0,1,0,48,5h.8V8.69h0V13l0,0h0l3.6-3.6h0V1.41H48A3.23,3.23,0,0,0,45.32,0ZM84.21,0a3.23,3.23,0,0,0-2.67,1.41H77.11v9.83h3.64V5h.8a3.23,3.23,0,1,0,2.67-5ZM19.9,42.11H22l3-3V35.65a54.12,54.12,0,0,0-5,6.46Zm20.5-6.88-1.07.7V30.54L52.43,17.45V10.88L51.29,12l-2.47,2.47,0,0v6A53.51,53.51,0,0,0,38.29,25l-4.72,4.72v9.49L11.7,62.65a54.19,54.19,0,0,0-.8,9.3c0,.45,0,.9,0,1.35l10-10q-.18.91-.32,1.84L11,74.76a53.85,53.85,0,0,0,25.27,42.89l4.91-4.91v-2.55l1.06.6h0v2.39l-5,5q2.08,1.24,4.27,2.3l2.33-2.34a1.33,1.33,0,0,1-.1-.51A1.31,1.31,0,1,1,45,119a1.34,1.34,0,0,1-.42-.07L42.49,121a53.47,53.47,0,0,0,10,3.4v-9.55l1.07.26v9.52q1.28.27,2.59.48v-9.48l1.07.18v9.47a53.93,53.93,0,0,0,58.26-35.08l-5.37,5.36h-8.41q.3-.53.59-1.07h7.38l6.59-6.57a53.85,53.85,0,0,0,2.41-16q0-.45,0-.9L106.35,83.33q.19-.92.33-1.85l11.91-11.91a53.79,53.79,0,0,0-1.86-11.9L110,64.36v6.35a1.51,1.51,0,0,1,1,1.5,1.6,1.6,0,0,1-3.2,0A1.52,1.52,0,0,1,109,70.7V63.92l7.42-7.42a53.28,53.28,0,0,0-2.27-6.18L98,66.4v2.92H96.95V66l16.7-16.69q-1-2.22-2.26-4.34L91.18,65.15v4.16H90.11V64.7L110.82,44q-1.2-2-2.57-3.84l-.65-.87a54.2,54.2,0,0,0-9.81-9.89L94.36,32.8A1.63,1.63,0,1,1,93.6,32l3.33-3.33q-1.42-1.06-2.91-2h0a53.75,53.75,0,0,0-6.55-3.62l-5.19,5.19a1.54,1.54,0,1,1-.76-.76l4.9-4.9a53.43,53.43,0,0,0-5.69-2.12l0,0V12.32H77.11V30a53.23,53.23,0,0,0-12.23-1.39,50.21,50.21,0,0,0-12.45,1.49V29l-1.56,1.56q-1,.3-2,.66V31l3.61-3.61V19l-12,12v4.25ZM98.83,46q-7.23-7.83-14.76-11a48.43,48.43,0,0,0-19.19-3.79Q45.28,31.22,33,45A39.43,39.43,0,0,0,22.72,72.11,42.25,42.25,0,0,0,28.3,93.32a38.74,38.74,0,0,0,15.18,15.16,44.39,44.39,0,0,0,21.84,5.31,39.43,39.43,0,0,0,19.94-4.85A37.41,37.41,0,0,0,99.09,94.82a38.36,38.36,0,0,0,5.35-19.56l-.11-3.32H64.79V86H87.56A23.09,23.09,0,0,1,79,96.23,24.56,24.56,0,0,1,65.9,99.47a27.62,27.62,0,0,1-20.05-7.9,26,26,0,0,1-8.12-19.3,25.24,25.24,0,0,1,7.83-18.7A26.56,26.56,0,0,1,65,45.87q13.33,0,23.32,10.58L98.83,46Zm-20.1,42.6H77.21l-8,8q.89-.1,1.77-.25l7.79-7.79Zm-16.57-10V77.52H42.33l-1.18,1.18q.15.6.34,1.18l1.29-1.29Zm12.72,36.93q-.91.18-1.84.32l-1,1a1.74,1.74,0,1,0,.88,1.18.51.51,0,0,0-.07-.24l-.07-.17,2.09-2.1Zm-25.77-1.68L48,113.47v1.74l-.17.11a1.35,1.35,0,1,0,1.42,0l-.17-.11v-1.36ZM38.53,108.5l-1-.74v1.94a1.21,1.21,0,0,0-.75,1.19,1.38,1.38,0,0,0,1.31,1.31,1.31,1.31,0,0,0,.48-2.54V108.5Zm-8.82-8.35-.65-.85-1,.75-.21-.07a1.6,1.6,0,1,0,1,1l-.07-.21.88-.66ZM20.34,77q-.07-.7-.12-1.39l-2,2L18,77.6a1.58,1.58,0,1,0,1.11,1.51,1.57,1.57,0,0,0-.07-.47l-.07-.21,1.4-1.4ZM64.25,48.51q-.81,0-1.6.08L52,59.09H44.32q-.37.53-.7,1.07h8.85L64.25,48.51Zm-13,44.08q.46.31.92.6l.45-.45a1.43,1.43,0,1,0-.77-.75l-.61.61Zm3.38,1.92q.52.24,1.06.46l3-3a1.32,1.32,0,1,0-.85-1.23,1.33,1.33,0,0,0,.09.47L54.59,94.5Zm5,1.68q.63.14,1.27.25l4.37-4.37a1.32,1.32,0,1,0-.85-1.23,1.31,1.31,0,0,0,.09.47l-4.88,4.88ZM50.4,89a.8.8,0,1,0,.8.8.8.8,0,0,0-.8-.8Zm2.73,1.64a.8.8,0,1,0,.8.8.8.8,0,0,0-.8-.8ZM92.89,32.72a.79.79,0,1,0,.79.79.79.79,0,0,0-.79-.79ZM71.23,117.51a.87.87,0,1,0,.87.87.87.87,0,0,0-.87-.87Zm9.66-89.4a.8.8,0,1,0,.8.8.8.8,0,0,0-.8-.8Zm28.6,43.3a.8.8,0,1,0,.8.8.8.8,0,0,0-.8-.8ZM48.58,115.64a.8.8,0,1,0,.8.8.8.8,0,0,0-.8-.8ZM45,116.89a.8.8,0,1,0,.8.8.8.8,0,0,0-.8-.8Zm-7-6.82a.8.8,0,1,0,.8.8.8.8,0,0,0-.8-.8Zm-10.7-9.36a.8.8,0,1,0,.8.8.8.8,0,0,0-.8-.8ZM65.74,90a.8.8,0,1,0,.8.8.8.8,0,0,0-.8-.8Zm-6.59-.13a.8.8,0,1,0,.8.8.8.8,0,0,0-.8-.8ZM17.48,78.31a.8.8,0,1,0,.8.8.8.8,0,0,0-.8-.8ZM48.74,90.66l.82.7.32-.32a1.37,1.37,0,1,0-.76-.76l-.38.38ZM12.06,60.77l20.44-22V29.3l.12-.12c.43-.43,1.24-1.17,2.2-2A54.18,54.18,0,0,0,26,34.51v5.06l-3.61,3.61H19.2A53.54,53.54,0,0,0,12.06,60.77Z"/><path class="cls-4" d="M64.44,137.32a2.21,2.21,0,0,0,.75-4.28v-1a60.62,60.62,0,0,0,6.8-.43,2.21,2.21,0,0,0,.37,3.52v2.45H56.52v-2.45a2.21,2.21,0,0,0,.37-3.52,60.62,60.62,0,0,0,6.8.43v1a2.21,2.21,0,0,0,.75,4.28ZM7.77,51.07a60.19,60.19,0,0,1,4.41-9.35,2.21,2.21,0,0,1-2.54-1H4.45V33H0V44.12H4.24a2.21,2.21,0,1,1,0,2.25H3.63v4.7ZM6.14,43.89a1.36,1.36,0,1,1-1.36,1.36,1.36,1.36,0,0,1,1.36-1.36Zm9.12-16.38a1.36,1.36,0,1,0,1.36,1.36,1.36,1.36,0,0,0-1.36-1.36ZM34.33,14a1.36,1.36,0,1,0,1.35,1.36A1.36,1.36,0,0,0,34.33,14ZM23.67,20.81A1.36,1.36,0,1,0,25,22.17a1.36,1.36,0,0,0-1.36-1.36Zm3-7.88a1.36,1.36,0,1,0,1.36,1.35,1.36,1.36,0,0,0-1.36-1.35ZM11.53,38.26a1.36,1.36,0,1,1-1.36,1.36,1.36,1.36,0,0,1,1.36-1.36Zm2.17,1a2.21,2.21,0,0,0-4.07-.75H6.7V35.33h4.92a2.21,2.21,0,1,0,0-2.25H6.7V30.8H0V8.69H19v7.4H8.79v5.83H6.08V12.39h7.16a2.2,2.2,0,1,0,0-2.25H3.83v14h5V30h4.57a2.21,2.21,0,1,0,0-2.25H11V18.34H21.21V8.69h4.36v3.7a2.21,2.21,0,1,0,2.25,0V8.69H41.89v7.41a59.93,59.93,0,0,0-6.44,3V17.24a2.21,2.21,0,1,0-2.25,0V20.4a59.84,59.84,0,0,0-8.41,6.1V24.06a2.21,2.21,0,1,0-2.25,0v4.48a60.27,60.27,0,0,0-8.83,10.69Zm-.19-6.39a1.36,1.36,0,1,1-1.36,1.36,1.36,1.36,0,0,1,1.36-1.36ZM15.13,9.91a1.36,1.36,0,1,0,1.36,1.36,1.36,1.36,0,0,0-1.36-1.36ZM35.86,133.1a1.36,1.36,0,1,0,1.36,1.36,1.36,1.36,0,0,0-1.36-1.36Zm28.57.66a1.36,1.36,0,1,0,1.36,1.36,1.36,1.36,0,0,0-1.36-1.36Zm-9-1.89a1.36,1.36,0,1,0,1.36,1.36,1.36,1.36,0,0,0-1.36-1.36Zm-1-.62a2.21,2.21,0,0,0-.14,3.87v2.45H43.35v-4.75h1.89a2.21,2.21,0,1,0,0-1.5H41.85v2.39H37.94a2.21,2.21,0,1,0,0,1.5h3.91v2.36H32.62v-5.75H21v-4.07a2.21,2.21,0,1,0-1.5,0V128H11.77v2.84a2.21,2.21,0,1,0,1.5,0v-1.34h6.25v3.78h11.6v4.25H0v-18.7H3.4v11.25a2.2,2.2,0,1,0,2.25,0V118.87H8.28a2.21,2.21,0,1,0,0-2.25H0v-4.68H10.25v-3.7a2.21,2.21,0,1,0-2.25,0v1.45H0V66.44H3.41V60.14a2.21,2.21,0,1,0-2.25,0v4.06H0V46.37H1.38v6.95H7a60.21,60.21,0,0,0-.91,34.22H3.21V100.6a2.2,2.2,0,1,0,2.25,0V89.78H6.72a60,60,0,0,0,12.9,22.54h-.06v4.38H14.39v-3.58a2.21,2.21,0,1,0-1.5,0v5.09h6.67v2.88H16.08a2.21,2.21,0,1,0,0,1.5h5v-8.73a60.42,60.42,0,0,0,4.54,4.21v11.78h8.85a2.2,2.2,0,1,0,0-1.5H27.1V126.2h9v-1.11a59.66,59.66,0,0,0,18.35,6.16Zm-7.09-.54a1.36,1.36,0,1,0,1.36,1.36,1.36,1.36,0,0,0-1.36-1.36Zm-10.79-3a1.36,1.36,0,1,0,1.36,1.36,1.36,1.36,0,0,0-1.36-1.36Zm-2-3.47a60.17,60.17,0,0,1-7.46-5v5.43h7.46v-.44Zm-14.29.05a1.36,1.36,0,1,0,1.36,1.36,1.36,1.36,0,0,0-1.36-1.36Zm-7.75,7.27a1.36,1.36,0,1,0,1.36,1.36,1.36,1.36,0,0,0-1.36-1.36ZM14,120.48a1.36,1.36,0,1,0,1.36,1.36A1.36,1.36,0,0,0,14,120.48Zm-.37-10.79A1.36,1.36,0,1,0,15,111a1.36,1.36,0,0,0-1.36-1.36Zm-9.11,21A1.36,1.36,0,1,0,5.88,132a1.36,1.36,0,0,0-1.36-1.36Zm5.65-14.27a1.36,1.36,0,1,0,1.36,1.36,1.36,1.36,0,0,0-1.36-1.36ZM9.12,105a1.36,1.36,0,1,0,1.36,1.36A1.36,1.36,0,0,0,9.12,105Zm-4.79-3.84a1.36,1.36,0,1,0,1.36,1.36,1.36,1.36,0,0,0-1.36-1.36Zm-2-44.26a1.36,1.36,0,1,0,1.36,1.36,1.36,1.36,0,0,0-1.36-1.36Zm118.82-5.82a60.22,60.22,0,0,0-4.41-9.35,2.21,2.21,0,0,0,2.54-1h5.19V33h4.45V44.12h-4.24a2.21,2.21,0,1,0,0,2.25h.61v4.7Zm1.63-7.18a1.36,1.36,0,1,0,1.36,1.36,1.36,1.36,0,0,0-1.36-1.36Zm-9.12-16.38a1.36,1.36,0,1,1-1.36,1.36,1.36,1.36,0,0,1,1.36-1.36ZM94.55,14a1.36,1.36,0,1,1-1.36,1.36A1.36,1.36,0,0,1,94.55,14Zm10.66,6.82a1.36,1.36,0,1,1-1.36,1.36,1.36,1.36,0,0,1,1.36-1.36Zm-3-7.88a1.36,1.36,0,1,1-1.36,1.35,1.36,1.36,0,0,1,1.36-1.35Zm15.16,25.32a1.36,1.36,0,1,0,1.36,1.36,1.36,1.36,0,0,0-1.36-1.36Zm-2.17,1a2.21,2.21,0,0,1,4.07-.75h2.94V35.33h-4.93a2.21,2.21,0,1,1,0-2.25h4.93V30.8h6.7V8.69h-19v7.4h10.17v5.83h2.71V12.39h-7.16a2.2,2.2,0,1,1,0-2.25H125v14h-5V30h-4.57a2.21,2.21,0,1,1,0-2.25h2.32V18.34H107.66V8.69H103.3v3.7a2.21,2.21,0,1,1-2.25,0V8.69H87v7.41a60,60,0,0,1,6.44,3V17.24a2.21,2.21,0,1,1,2.25,0V20.4a59.88,59.88,0,0,1,8.41,6.1V24.06a2.21,2.21,0,1,1,2.25,0v4.48a60.27,60.27,0,0,1,8.83,10.69Zm.19-6.39a1.36,1.36,0,1,0,1.36,1.36,1.36,1.36,0,0,0-1.36-1.36ZM113.74,9.91a1.36,1.36,0,1,1-1.36,1.36,1.36,1.36,0,0,1,1.36-1.36ZM93,133.1a1.36,1.36,0,1,1-1.36,1.36A1.36,1.36,0,0,1,93,133.1Zm-19.53-1.23a1.36,1.36,0,1,0,1.36,1.36,1.36,1.36,0,0,0-1.36-1.36Zm1-.62a2.21,2.21,0,0,1,.14,3.87v2.45H85.53v-4.75H83.63a2.21,2.21,0,1,1,0-1.5H87v2.39h3.91a2.21,2.21,0,1,1,0,1.5H87v2.36h9.23v-5.75h11.6v-4.07a2.21,2.21,0,1,1,1.5,0V128h7.75v2.84a2.2,2.2,0,1,1-1.5,0v-1.34h-6.25v3.78H97.76v4.25h31.12v-18.7h-3.4v11.25a2.21,2.21,0,1,1-2.25,0V118.87H120.6a2.21,2.21,0,1,1,0-2.25h8.28v-4.68H118.63v-3.7a2.21,2.21,0,1,1,2.25,0v1.45h8V66.44h-3.41V60.14a2.21,2.21,0,1,1,2.25,0v4.06h1.16V46.37h-1.38v6.95h-5.6a60.21,60.21,0,0,1,.91,34.22h2.86V100.6a2.21,2.21,0,1,1-2.25,0V89.78h-1.26a60,60,0,0,1-12.9,22.54h.06v4.38h5.17v-3.58a2.2,2.2,0,1,1,1.5,0v5.09h-6.67v2.88h3.48a2.21,2.21,0,1,1,0,1.5h-5v-8.73a60.38,60.38,0,0,1-4.54,4.21v11.78H94.42a2.2,2.2,0,1,1,0-1.5h7.35V126.2h-9v-1.11a59.65,59.65,0,0,1-18.35,6.16Zm7.09-.54a1.36,1.36,0,1,1-1.36,1.36,1.36,1.36,0,0,1,1.36-1.36Zm10.79-3A1.36,1.36,0,1,1,91,129.09a1.36,1.36,0,0,1,1.36-1.36Zm2-3.47a60.17,60.17,0,0,0,7.46-5v5.43H94.32v-.44Zm14.29.05a1.36,1.36,0,1,1-1.35,1.36,1.36,1.36,0,0,1,1.35-1.36Zm7.75,7.27a1.36,1.36,0,1,1-1.36,1.36,1.36,1.36,0,0,1,1.36-1.36Zm-1.48-11.11a1.36,1.36,0,1,1-1.36,1.36,1.36,1.36,0,0,1,1.36-1.36Zm.37-10.79a1.36,1.36,0,1,1-1.36,1.36,1.36,1.36,0,0,1,1.36-1.36Zm9.11,21A1.36,1.36,0,1,1,123,132a1.36,1.36,0,0,1,1.35-1.36Zm-5.65-14.27a1.36,1.36,0,1,1-1.36,1.36,1.36,1.36,0,0,1,1.36-1.36Zm1.05-11.4a1.36,1.36,0,1,1-1.36,1.36,1.36,1.36,0,0,1,1.36-1.36Zm4.79-3.84a1.36,1.36,0,1,1-1.36,1.36,1.36,1.36,0,0,1,1.36-1.36Zm2-44.26a1.36,1.36,0,1,1-1.35,1.36A1.36,1.36,0,0,1,126.59,56.89Z"/><path class="cls-4" d="M52.43,19l3.81-3.81a1.31,1.31,0,1,0-.79-.73l-3,3V10.88l1.46-1.46V8.69h5.82V9.95l-.17.11a1.35,1.35,0,1,0,1.42,0l-.17-.11V8.69h3.35V31.24a46.25,46.25,0,0,0-11.7,1.58V29l7.15-7.15.2,0a1.34,1.34,0,1,0-1-1l0,.2-6.39,6.39V19Zm4.23-5.85a.8.8,0,1,0,.8.8.8.8,0,0,0-.8-.8Zm3.42,6.63a.8.8,0,1,0,.8.8.8.8,0,0,0-.8-.8ZM67.8,8.69V31.32q-1.3-.07-2.59-.08V8.69Z"/><path class="cls-4" d="M74.29,8.69a1.43,1.43,0,0,0,2,0h.8v2.56h-.48a1.43,1.43,0,1,0,0,1.07h.48V32.68a50.33,50.33,0,0,0-12.23-1.46A47.2,47.2,0,0,0,52.43,32.8V30.09a50.21,50.21,0,0,1,12.45-1.49q2,0,4,.14v-20Zm1,2.33a.8.8,0,1,0,.8.8A.8.8,0,0,0,75.31,11Z"/><circle class="cls-5" cx="71.21" cy="19.63" r="5.58"/><path class="cls-3" d="M55.62,8.69a4,4,0,0,0,8,0Z"/><path class="cls-4" d="M59.62,4.69a4,4,0,0,0-4,4h8A4,4,0,0,0,59.62,4.69Z"/></g></g></svg>